# xmcd
#
# Track frame offsets:
#	150
#	13147
#	31753
#	46229
#	66669
#	76190
#	89036
#	102003
#	112339
#	123294
#	134226
#	149928
#	163076
#	177705
#
# Disc length: 2534 seconds
#
# Revision: 0
# Processed by: cddbd v1.5.2PL0 Copyright (c) Steve Scherf et al.
# Submitted via: dBpowerAMP V4.0
#
DISCID=d909e40e
DTITLE=Oakridge Boys - Christmas Cookies
DYEAR=2005
DGENRE=Christmas
TTITLE0=Hark! The Hearld Angels Sing
TTITLE1=I'll be Home For Christmas
TTITLE2=Ordinary Days
TTITLE3=From Love to Love
TTITLE4=Hay Baby
TTITLE5=Blessed be The Day
TTITLE6=Christmas Cookies
TTITLE7=O Come All ye Faithful
TTITLE8=Away in a Manger
TTITLE9=Uncle Luther Made The Stuffin'
TTITLE10=Little Annie's Christmas Wish
TTITLE11=The Warmest Night of The Year
TTITLE12=Back to Tennessee
TTITLE13=Jingle Bells
EXTD=\nThe Oak Ridge Boys  -  Christmas Cookies\n\n\n\n\n\nFormat: Compact Disc  \nRelease Date: Oct 11, 2005\nOriginal release year: 2005\nLabel: Spring Hill Music\nProducer: Michael Sykes - Duane Allen\nStereo: Stereo\nStudio/Live: Studio\nPieces in Se
EXTD=t: 1\n\n\n \n\n \n \n\n\nGenre: Country, Sub-Genre: Christmas\n\n\nTrack Listings:             Top \n \nTitle        \n\n01. Hark! The Herald Angels Sing      \n02. I'll Be Home For Christmas      \n03. Ordinary Days      \n04. From Love To Love   
EXTD=\n05. Hay Baby      \n06. Blessed Be The Day      \n07. Christmas Cookies      \n08. O Come All Ye Faithful      \n09. Away In A Manger      \n10. Uncle Luther Made The Stuffin'      \n11. Little Annie's Christmas Wish      \n12. Warmest Night O
EXTD=f The Year, The      \n13. Back To Tennessee      \n14. Jingle Bells      \n\n 
EXTT0=
EXTT1=
EXTT2=
EXTT3=
EXTT4=
EXTT5=
EXTT6=
EXTT7=
EXTT8=
EXTT9=
EXTT10=
EXTT11=
EXTT12=
EXTT13=
PLAYORDER=
